<?xml version="1.0" encoding="utf-8" standalone="no"?>
<!DOCTYPE svg PUBLIC "-//W3C//DTD SVG 1.1//EN"
  "http://www.w3.org/Graphics/SVG/1.1/DTD/svg11.dtd">
<svg xmlns:xlink="http://www.w3.org/1999/xlink" width="205.14pt" height="206.9pt" viewBox="0 0 205.14 206.9" xmlns="http://www.w3.org/2000/svg" version="1.1">
 <metadata>
  <rdf:RDF xmlns:dc="http://purl.org/dc/elements/1.1/" xmlns:cc="http://creativecommons.org/ns#" xmlns:rdf="http://www.w3.org/1999/02/22-rdf-syntax-ns#">
   <cc:Work>
    <dc:type rdf:resource="http://purl.org/dc/dcmitype/StillImage"/>
    <dc:date>2026-01-14T23:14:48.663708</dc:date>
    <dc:format>image/svg+xml</dc:format>
    <dc:creator>
     <cc:Agent>
      <dc:title>Matplotlib v3.10.8, https://matplotlib.org/</dc:title>
     </cc:Agent>
    </dc:creator>
   </cc:Work>
  </rdf:RDF>
 </metadata>
 <defs>
  <style type="text/css">*{stroke-linejoin: round; stroke-linecap: butt}</style>
 </defs>
 <g id="figure_1">
  <g id="patch_1">
   <path d="M 0 206.9 
L 205.14 206.9 
L 205.14 0 
L 0 0 
z
" style="fill: #ffffff"/>
  </g>
  <g id="axes_1">
   <g id="patch_2">
    <path d="M 168.96 144.28 
L 169.459778 144.276035 
L 169.95943 144.264141 
L 170.45883 144.244321 
L 170.957853 144.21658 
L 171.456374 144.180925 
L 171.954265 144.137366 
L 172.451403 144.085912 
L 172.947662 144.026577 
L 173.442917 143.959375 
L 173.937044 143.884325 
L 174.429918 143.801444 
L 174.921414 143.710754 
L 175.41141 143.612277 
L 175.899782 143.506038 
L 176.386406 143.392064 
L 176.871162 143.270384 
L 177.353925 143.141028 
L 177.834576 143.004029 
L 178.312992 142.859421 
L 178.789054 142.70724 
L 179.262641 142.547526 
L 179.733635 142.380318 
L 180.201916 142.205658 
L 180.667367 142.02359 
L 181.129871 141.83416 
L 181.589312 141.637416 
L 182.045573 141.433408 
L 182.49854 141.222186 
L 182.948098 141.003804 
L 183.394135 140.778317 
L 183.836539 140.545781 
L 184.275197 140.306255 
L 184.71 140.0598 
L 185.140838 139.806478 
L 185.567602 139.546351 
L 185.990186 139.279486 
L 186.408482 139.00595 
L 186.822386 138.725812 
L 187.231793 138.439142 
L 187.6366 138.146013 
L 188.036705 137.846498 
L 188.432008 137.540672 
L 188.822409 137.228614 
L 189.20781 136.9104 
L 189.588113 136.586112 
L 189.963224 136.25583 
L 190.333046 135.919639 
L 190.697489 135.577622 
L 191.056459 135.229866 
L 191.409866 134.876459 
L 191.757622 134.517489 
L 192.099639 134.153046 
L 192.43583 133.783224 
L 192.766112 133.408113 
L 193.0904 133.02781 
L 193.408614 132.642409 
L 193.720672 132.252008 
L 194.026498 131.856705 
L 194.326013 131.4566 
L 194.619142 131.051793 
L 194.905812 130.642386 
L 195.18595 130.228482 
L 195.459486 129.810186 
L 195.726351 129.387602 
L 195.986478 128.960838 
L 196.2398 128.53 
L 196.486255 128.095197 
L 196.725781 127.656539 
L 196.958317 127.214135 
L 197.183804 126.768098 
L 197.402186 126.31854 
L 197.613408 125.865573 
L 197.817416 125.409312 
L 198.01416 124.949871 
L 198.20359 124.487367 
L 198.385658 124.021916 
L 198.560318 123.553635 
L 198.727526 123.082641 
L 198.88724 122.609054 
L 199.039421 122.132992 
L 199.184029 121.654576 
L 199.321028 121.173925 
L 199.450384 120.691162 
L 199.572064 120.206406 
L 199.686038 119.719782 
L 199.792277 119.23141 
L 199.890754 118.741414 
L 199.981444 118.249918 
L 200.064325 117.757044 
L 200.139375 117.262917 
L 200.206577 116.767662 
L 200.265912 116.271403 
L 200.317366 115.774265 
L 200.360925 115.276374 
L 200.39658 114.777853 
L 200.424321 114.27883 
L 200.444141 113.77943 
L 200.456035 113.279778 
L 200.46 112.78 
L 200.46 112.78 
L 200.456035 112.280222 
L 200.444141 111.78057 
L 200.424321 111.28117 
L 200.39658 110.782147 
L 200.360925 110.283626 
L 200.317366 109.785735 
L 200.265912 109.288597 
L 200.206577 108.792338 
L 200.139375 108.297083 
L 200.064325 107.802956 
L 199.981444 107.310082 
L 199.890754 106.818586 
L 199.792277 106.32859 
L 199.686038 105.840218 
L 199.572064 105.353594 
L 199.450384 104.868838 
L 199.321028 104.386075 
L 199.184029 103.905424 
L 199.039421 103.427008 
L 198.88724 102.950946 
L 198.727526 102.477359 
L 198.560318 102.006365 
L 198.385658 101.538084 
L 198.20359 101.072633 
L 198.01416 100.610129 
L 197.817416 100.150688 
L 197.613408 99.694427 
L 197.402186 99.24146 
L 197.183804 98.791902 
L 196.958317 98.345865 
L 196.725781 97.903461 
L 196.486255 97.464803 
L 196.2398 97.03 
L 195.986478 96.599162 
L 195.726351 96.172398 
L 195.459486 95.749814 
L 195.18595 95.331518 
L 194.905812 94.917614 
L 194.619142 94.508207 
L 194.326013 94.1034 
L 194.026498 93.703295 
L 193.720672 93.307992 
L 193.408614 92.917591 
L 193.0904 92.53219 
L 192.766112 92.151887 
L 192.43583 91.776776 
L 192.099639 91.406954 
L 191.757622 91.042511 
L 191.409866 90.683541 
L 191.056459 90.330134 
L 190.697489 89.982378 
L 190.333046 89.640361 
L 189.963224 89.30417 
L 189.588113 88.973888 
L 189.20781 88.6496 
L 188.822409 88.331386 
L 188.432008 88.019328 
L 188.036705 87.713502 
L 187.6366 87.413987 
L 187.231793 87.120858 
L 186.822386 86.834188 
L 186.408482 86.55405 
L 185.990186 86.280514 
L 185.567602 86.013649 
L 185.140838 85.753522 
L 184.71 85.5002 
L 184.275197 85.253745 
L 183.836539 85.014219 
L 183.394135 84.781683 
L 182.948098 84.556196 
L 182.49854 84.337814 
L 182.045573 84.126592 
L 181.589312 83.922584 
L 181.129871 83.72584 
L 180.667367 83.53641 
L 180.201916 83.354342 
L 179.733635 83.179682 
L 179.262641 83.012474 
L 178.789054 82.85276 
L 178.312992 82.700579 
L 177.834576 82.555971 
L 177.353925 82.418972 
L 176.871162 82.289616 
L 176.386406 82.167936 
L 175.899782 82.053962 
L 175.41141 81.947723 
L 174.921414 81.849246 
L 174.429918 81.758556 
L 173.937044 81.675675 
L 173.442917 81.600625 
L 172.947662 81.533423 
L 172.451403 81.474088 
L 171.954265 81.422634 
L 171.456374 81.379075 
L 170.957853 81.34342 
L 170.45883 81.315679 
L 169.95943 81.295859 
L 169.459778 81.283965 
L 168.96 81.28 
L 168.96 81.28 
L 168.460222 81.283965 
L 167.96057 81.295859 
L 167.46117 81.315679 
L 166.962147 81.34342 
L 166.463626 81.379075 
L 165.965735 81.422634 
L 165.468597 81.474088 
L 164.972338 81.533423 
L 164.477083 81.600625 
L 163.982956 81.675675 
L 163.490082 81.758556 
L 162.998586 81.849246 
L 162.50859 81.947723 
L 162.020218 82.053962 
L 161.533594 82.167936 
L 161.048838 82.289616 
L 160.566075 82.418972 
L 160.085424 82.555971 
L 159.607008 82.700579 
L 159.130946 82.85276 
L 158.657359 83.012474 
L 158.186365 83.179682 
L 157.718084 83.354342 
L 157.252633 83.53641 
L 156.790129 83.72584 
L 156.330688 83.922584 
L 155.874427 84.126592 
L 155.42146 84.337814 
L 154.971902 84.556196 
L 154.525865 84.781683 
L 154.083461 85.014219 
L 153.644803 85.253745 
L 153.21 85.5002 
L 152.779162 85.753522 
L 152.352398 86.013649 
L 151.929814 86.280514 
L 151.511518 86.55405 
L 151.097614 86.834188 
L 150.688207 87.120858 
L 150.2834 87.413987 
L 149.883295 87.713502 
L 149.487992 88.019328 
L 149.097591 88.331386 
L 148.71219 88.6496 
L 148.331887 88.973888 
L 147.956776 89.30417 
L 147.586954 89.640361 
L 147.222511 89.982378 
L 146.863541 90.330134 
L 146.510134 90.683541 
L 146.162378 91.042511 
L 145.820361 91.406954 
L 145.48417 91.776776 
L 145.153888 92.151887 
L 144.8296 92.53219 
L 144.511386 92.917591 
L 144.199328 93.307992 
L 143.893502 93.703295 
L 143.593987 94.1034 
L 143.300858 94.508207 
L 143.014188 94.917614 
L 142.73405 95.331518 
L 142.460514 95.749814 
L 142.193649 96.172398 
L 141.933522 96.599162 
L 141.6802 97.03 
L 141.433745 97.464803 
L 141.194219 97.903461 
L 140.961683 98.345865 
L 140.736196 98.791902 
L 140.517814 99.24146 
L 140.306592 99.694427 
L 140.102584 100.150688 
L 139.90584 100.610129 
L 139.71641 101.072633 
L 139.534342 101.538084 
L 139.359682 102.006365 
L 139.192474 102.477359 
L 139.03276 102.950946 
L 138.880579 103.427008 
L 138.735971 103.905424 
L 138.598972 104.386075 
L 138.469616 104.868838 
L 138.347936 105.353594 
L 138.233962 105.840218 
L 138.127723 106.32859 
L 138.029246 106.818586 
L 137.938556 107.310082 
L 137.855675 107.802956 
L 137.780625 108.297083 
L 137.713423 108.792338 
L 137.654088 109.288597 
L 137.602634 109.785735 
L 137.559075 110.283626 
L 137.52342 110.782147 
L 137.495679 111.28117 
L 137.475859 111.78057 
L 137.463965 112.280222 
L 137.46 112.78 
L 137.46 112.78 
L 137.463965 113.279778 
L 137.475859 113.77943 
L 137.495679 114.27883 
L 137.52342 114.777853 
L 137.559075 115.276374 
L 137.602634 115.774265 
L 137.654088 116.271403 
L 137.713423 116.767662 
L 137.780625 117.262917 
L 137.855675 117.757044 
L 137.938556 118.249918 
L 138.029246 118.741414 
L 138.127723 119.23141 
L 138.233962 119.719782 
L 138.347936 120.206406 
L 138.469616 120.691162 
L 138.598972 121.173925 
L 138.735971 121.654576 
L 138.880579 122.132992 
L 139.03276 122.609054 
L 139.192474 123.082641 
L 139.359682 123.553635 
L 139.534342 124.021916 
L 139.71641 124.487367 
L 139.90584 124.949871 
L 140.102584 125.409312 
L 140.306592 125.865573 
L 140.517814 126.31854 
L 140.736196 126.768098 
L 140.961683 127.214135 
L 141.194219 127.656539 
L 141.433745 128.095197 
L 141.6802 128.53 
L 141.933522 128.960838 
L 142.193649 129.387602 
L 142.460514 129.810186 
L 142.73405 130.228482 
L 143.014188 130.642386 
L 143.300858 131.051793 
L 143.593987 131.4566 
L 143.893502 131.856705 
L 144.199328 132.252008 
L 144.511386 132.642409 
L 144.8296 133.02781 
L 145.153888 133.408113 
L 145.48417 133.783224 
L 145.820361 134.153046 
L 146.162378 134.517489 
L 146.510134 134.876459 
L 146.863541 135.229866 
L 147.222511 135.577622 
L 147.586954 135.919639 
L 147.956776 136.25583 
L 148.331887 136.586112 
L 148.71219 136.9104 
L 149.097591 137.228614 
L 149.487992 137.540672 
L 149.883295 137.846498 
L 150.2834 138.146013 
L 150.688207 138.439142 
L 151.097614 138.725812 
L 151.511518 139.00595 
L 151.929814 139.279486 
L 152.352398 139.546351 
L 152.779162 139.806478 
L 153.21 140.0598 
L 153.644803 140.306255 
L 154.083461 140.545781 
L 154.525865 140.778317 
L 154.971902 141.003804 
L 155.42146 141.222186 
L 155.874427 141.433408 
L 156.330688 141.637416 
L 156.790129 141.83416 
L 157.252633 142.02359 
L 157.718084 142.205658 
L 158.186365 142.380318 
L 158.657359 142.547526 
L 159.130946 142.70724 
L 159.607008 142.859421 
L 160.085424 143.004029 
L 160.566075 143.141028 
L 161.048838 143.270384 
L 161.533594 143.392064 
L 162.020218 143.506038 
L 162.50859 143.612277 
L 162.998586 143.710754 
L 163.490082 143.801444 
L 163.982956 143.884325 
L 164.477083 143.959375 
L 164.972338 144.026577 
L 165.468597 144.085912 
L 165.965735 144.137366 
L 166.463626 144.180925 
L 166.962147 144.21658 
L 167.46117 144.244321 
L 167.96057 144.264141 
L 168.460222 144.276035 
L 168.96 144.28 
L 168.96 144.28 
z
" clip-path="url(#p67d4d0888b)" style="fill: none; stroke: #000000; stroke-width: 2.5; stroke-linecap: round"/>
   </g>
   <g id="line2d_1">
    <path d="M 156.36 105.78 
L 181.56 105.78 
" clip-path="url(#p67d4d0888b)" style="fill: none; stroke: #000000; stroke-width: 2; stroke-linecap: round"/>
   </g>
   <g id="line2d_2">
    <path d="M 168.96 81.28 
L 168.96 105.78 
" clip-path="url(#p67d4d0888b)" style="fill: none; stroke: #000000; stroke-width: 2; stroke-linecap: round"/>
   </g>
   <g id="line2d_3">
    <path d="M 156.36 112.78 
L 161.4 112.78 
" clip-path="url(#p67d4d0888b)" style="fill: none; stroke: #000000; stroke-width: 2; stroke-linecap: round"/>
   </g>
   <g id="line2d_4">
    <path d="M 166.44 112.78 
L 171.48 112.78 
" clip-path="url(#p67d4d0888b)" style="fill: none; stroke: #000000; stroke-width: 2; stroke-linecap: round"/>
   </g>
   <g id="line2d_5">
    <path d="M 176.52 112.78 
L 181.56 112.78 
" clip-path="url(#p67d4d0888b)" style="fill: none; stroke: #000000; stroke-width: 2; stroke-linecap: round"/>
   </g>
   <g id="line2d_6">
    <path d="M 156.36 125.18 
L 156.36 119.78 
L 181.56 119.78 
L 181.56 125.18 
" clip-path="url(#p67d4d0888b)" style="fill: none; stroke: #000000; stroke-width: 2; stroke-linecap: round"/>
   </g>
   <g id="line2d_7">
    <path d="M 156.36 125.18 
L 156.36 134.18 
L 165.36 137.18 
L 147.36 143.18 
L 165.36 149.18 
L 147.36 155.18 
L 165.36 161.18 
L 147.36 167.18 
L 156.36 170.18 
L 156.36 179.18 
" clip-path="url(#p67d4d0888b)" style="fill: none; stroke: #000000; stroke-width: 2; stroke-linecap: round"/>
   </g>
   <g id="line2d_8">
    <path d="M 156.36 125.18 
L 156.36 148.94 
M 165.36 148.94 
L 147.36 148.94 
M 165.36 155.42 
L 147.36 155.42 
M 156.36 155.42 
L 156.36 179.18 
" clip-path="url(#p67d4d0888b)" style="fill: none; stroke: #000000; stroke-width: 2; stroke-linecap: round"/>
   </g>
   <g id="line2d_9">
    <path d="M 156.36 179.18 
L 156.36 193.58 
L 147.36 193.58 
L 165.36 193.58 
M 150.06 197.9 
L 162.66 197.9 
M 154.56 202.22 
L 158.16 202.22 
" clip-path="url(#p67d4d0888b)" style="fill: none; stroke: #000000; stroke-width: 2; stroke-linecap: round"/>
   </g>
   <g id="line2d_10">
    <path d="M 168.96 81.28 
L 168.96 63.28 
L 168.96 45.28 
" clip-path="url(#p67d4d0888b)" style="fill: none; stroke: #000000; stroke-width: 2; stroke-linecap: round"/>
   </g>
   <g id="line2d_11">
    <path d="M 168.96 45.28 
L 159.96 45.28 
L 156.96 54.28 
L 150.96 36.28 
L 144.96 54.28 
L 138.96 36.28 
L 132.96 54.28 
L 126.96 36.28 
L 123.96 45.28 
L 114.96 45.28 
" clip-path="url(#p67d4d0888b)" style="fill: none; stroke: #000000; stroke-width: 2; stroke-linecap: round"/>
   </g>
   <g id="line2d_12">
    <path d="M 114.96 45.28 
L 87.96 45.28 
L 60.96 45.28 
" clip-path="url(#p67d4d0888b)" style="fill: none; stroke: #000000; stroke-width: 2; stroke-linecap: round"/>
   </g>
   <g id="line2d_13">
    <path d="M 151.32 112.78 
L 124.32 112.78 
L 97.32 112.78 
" clip-path="url(#p67d4d0888b)" style="fill: none; stroke: #000000; stroke-width: 2; stroke-linecap: round"/>
   </g>
   <g id="line2d_14">
    <path d="M 97.32 112.78 
L 73.56 112.78 
M 73.56 121.78 
L 73.56 103.78 
M 67.08 121.78 
L 67.08 103.78 
M 67.08 112.78 
L 43.32 112.78 
" clip-path="url(#p67d4d0888b)" style="fill: none; stroke: #000000; stroke-width: 2; stroke-linecap: round"/>
   </g>
   <g id="text_1">
    <!-- 12AU7 -->
    <g transform="translate(145.687187 74.768437) scale(0.14 -0.14)">
     <defs>
      <path id="DejaVuSans-31" d="M 794 531 
L 1825 531 
L 1825 4091 
L 703 3866 
L 703 4441 
L 1819 4666 
L 2450 4666 
L 2450 531 
L 3481 531 
L 3481 0 
L 794 0 
L 794 531 
z
" transform="scale(0.015625)"/>
      <path id="DejaVuSans-32" d="M 1228 531 
L 3431 531 
L 3431 0 
L 469 0 
L 469 531 
Q 828 903 1448 1529 
Q 2069 2156 2228 2338 
Q 2531 2678 2651 2914 
Q 2772 3150 2772 3378 
Q 2772 3750 2511 3984 
Q 2250 4219 1831 4219 
Q 1534 4219 1204 4116 
Q 875 4013 500 3803 
L 500 4441 
Q 881 4594 1212 4672 
Q 1544 4750 1819 4750 
Q 2544 4750 2975 4387 
Q 3406 4025 3406 3419 
Q 3406 3131 3298 2873 
Q 3191 2616 2906 2266 
Q 2828 2175 2409 1742 
Q 1991 1309 1228 531 
z
" transform="scale(0.015625)"/>
      <path id="DejaVuSans-41" d="M 2188 4044 
L 1331 1722 
L 3047 1722 
L 2188 4044 
z
M 1831 4666 
L 2547 4666 
L 4325 0 
L 3669 0 
L 3244 1197 
L 1141 1197 
L 716 0 
L 50 0 
L 1831 4666 
z
" transform="scale(0.015625)"/>
      <path id="DejaVuSans-55" d="M 556 4666 
L 1191 4666 
L 1191 1831 
Q 1191 1081 1462 751 
Q 1734 422 2344 422 
Q 2950 422 3222 751 
Q 3494 1081 3494 1831 
L 3494 4666 
L 4128 4666 
L 4128 1753 
Q 4128 841 3676 375 
Q 3225 -91 2344 -91 
Q 1459 -91 1007 375 
Q 556 841 556 1753 
L 556 4666 
z
" transform="scale(0.015625)"/>
      <path id="DejaVuSans-37" d="M 525 4666 
L 3525 4666 
L 3525 4397 
L 1831 0 
L 1172 0 
L 2766 4134 
L 525 4134 
L 525 4666 
z
" transform="scale(0.015625)"/>
     </defs>
     <use xlink:href="#DejaVuSans-31"/>
     <use xlink:href="#DejaVuSans-32" transform="translate(63.623047 0)"/>
     <use xlink:href="#DejaVuSans-41" transform="translate(127.246094 0)"/>
     <use xlink:href="#DejaVuSans-55" transform="translate(195.654297 0)"/>
     <use xlink:href="#DejaVuSans-37" transform="translate(268.847656 0)"/>
    </g>
   </g>
   <g id="text_2">
    <!-- Rk -->
    <g transform="translate(125.925312 149.268437) scale(0.14 -0.14)">
     <defs>
      <path id="DejaVuSans-52" d="M 2841 2188 
Q 3044 2119 3236 1894 
Q 3428 1669 3622 1275 
L 4263 0 
L 3584 0 
L 2988 1197 
Q 2756 1666 2539 1819 
Q 2322 1972 1947 1972 
L 1259 1972 
L 1259 0 
L 628 0 
L 628 4666 
L 2053 4666 
Q 2853 4666 3247 4331 
Q 3641 3997 3641 3322 
Q 3641 2881 3436 2590 
Q 3231 2300 2841 2188 
z
M 1259 4147 
L 1259 2491 
L 2053 2491 
Q 2509 2491 2742 2702 
Q 2975 2913 2975 3322 
Q 2975 3731 2742 3939 
Q 2509 4147 2053 4147 
L 1259 4147 
z
" transform="scale(0.015625)"/>
      <path id="DejaVuSans-6b" d="M 581 4863 
L 1159 4863 
L 1159 1991 
L 2875 3500 
L 3609 3500 
L 1753 1863 
L 3688 0 
L 2938 0 
L 1159 1709 
L 1159 0 
L 581 0 
L 581 4863 
z
" transform="scale(0.015625)"/>
     </defs>
     <use xlink:href="#DejaVuSans-52"/>
     <use xlink:href="#DejaVuSans-6b" transform="translate(69.482422 0)"/>
    </g>
    <!-- 1kΩ -->
    <g transform="translate(116.046562 162.817812) scale(0.14 -0.14)">
     <defs>
      <path id="DejaVuSans-3a9" d="M 4647 556 
L 4647 0 
L 2772 0 
L 2772 556 
Q 3325 859 3634 1378 
Q 3944 1897 3944 2528 
Q 3944 3278 3531 3731 
Q 3119 4184 2444 4184 
Q 1769 4184 1355 3729 
Q 941 3275 941 2528 
Q 941 1897 1250 1378 
Q 1563 859 2119 556 
L 2119 0 
L 244 0 
L 244 556 
L 1241 556 
Q 747 991 519 1456 
Q 294 1922 294 2497 
Q 294 3491 894 4106 
Q 1491 4722 2444 4722 
Q 3391 4722 3994 4106 
Q 4594 3494 4594 2528 
Q 4594 1922 4372 1459 
Q 4150 997 3647 556 
L 4647 556 
z
" transform="scale(0.015625)"/>
     </defs>
     <use xlink:href="#DejaVuSans-31"/>
     <use xlink:href="#DejaVuSans-6b" transform="translate(63.623047 0)"/>
     <use xlink:href="#DejaVuSans-3a9" transform="translate(121.533203 0)"/>
    </g>
   </g>
   <g id="text_3">
    <!-- Ck -->
    <g transform="translate(125.877187 149.268437) scale(0.14 -0.14)">
     <defs>
      <path id="DejaVuSans-43" d="M 4122 4306 
L 4122 3641 
Q 3803 3938 3442 4084 
Q 3081 4231 2675 4231 
Q 1875 4231 1450 3742 
Q 1025 3253 1025 2328 
Q 1025 1406 1450 917 
Q 1875 428 2675 428 
Q 3081 428 3442 575 
Q 3803 722 4122 1019 
L 4122 359 
Q 3791 134 3420 21 
Q 3050 -91 2638 -91 
Q 1578 -91 968 557 
Q 359 1206 359 2328 
Q 359 3453 968 4101 
Q 1578 4750 2638 4750 
Q 3056 4750 3426 4639 
Q 3797 4528 4122 4306 
z
" transform="scale(0.015625)"/>
     </defs>
     <use xlink:href="#DejaVuSans-43"/>
     <use xlink:href="#DejaVuSans-6b" transform="translate(69.824219 0)"/>
    </g>
    <!-- 22µF -->
    <g transform="translate(108.985312 162.817812) scale(0.14 -0.14)">
     <defs>
      <path id="DejaVuSans-b5" d="M 544 -1331 
L 544 3500 
L 1119 3500 
L 1119 1325 
Q 1119 872 1334 640 
Q 1550 409 1972 409 
Q 2434 409 2667 671 
Q 2900 934 2900 1459 
L 2900 3500 
L 3475 3500 
L 3475 806 
Q 3475 619 3529 530 
Q 3584 441 3700 441 
Q 3728 441 3778 458 
Q 3828 475 3916 513 
L 3916 50 
Q 3788 -22 3673 -56 
Q 3559 -91 3450 -91 
Q 3234 -91 3106 31 
Q 2978 153 2931 403 
Q 2775 156 2548 32 
Q 2322 -91 2016 -91 
Q 1697 -91 1473 31 
Q 1250 153 1119 397 
L 1119 -1331 
L 544 -1331 
z
" transform="scale(0.015625)"/>
      <path id="DejaVuSans-46" d="M 628 4666 
L 3309 4666 
L 3309 4134 
L 1259 4134 
L 1259 2759 
L 3109 2759 
L 3109 2228 
L 1259 2228 
L 1259 0 
L 628 0 
L 628 4666 
z
" transform="scale(0.015625)"/>
     </defs>
     <use xlink:href="#DejaVuSans-32"/>
     <use xlink:href="#DejaVuSans-32" transform="translate(63.623047 0)"/>
     <use xlink:href="#DejaVuSans-b5" transform="translate(127.246094 0)"/>
     <use xlink:href="#DejaVuSans-46" transform="translate(190.869141 0)"/>
    </g>
   </g>
   <g id="text_4">
    <!-- Ra -->
    <g transform="translate(132.963906 16.219062) scale(0.14 -0.14)">
     <defs>
      <path id="DejaVuSans-61" d="M 2194 1759 
Q 1497 1759 1228 1600 
Q 959 1441 959 1056 
Q 959 750 1161 570 
Q 1363 391 1709 391 
Q 2188 391 2477 730 
Q 2766 1069 2766 1631 
L 2766 1759 
L 2194 1759 
z
M 3341 1997 
L 3341 0 
L 2766 0 
L 2766 531 
Q 2569 213 2275 61 
Q 1981 -91 1556 -91 
Q 1019 -91 701 211 
Q 384 513 384 1019 
Q 384 1609 779 1909 
Q 1175 2209 1959 2209 
L 2766 2209 
L 2766 2266 
Q 2766 2663 2505 2880 
Q 2244 3097 1772 3097 
Q 1472 3097 1187 3025 
Q 903 2953 641 2809 
L 641 3341 
Q 956 3463 1253 3523 
Q 1550 3584 1831 3584 
Q 2591 3584 2966 3190 
Q 3341 2797 3341 1997 
z
" transform="scale(0.015625)"/>
     </defs>
     <use xlink:href="#DejaVuSans-52"/>
     <use xlink:href="#DejaVuSans-61" transform="translate(67.232422 0)"/>
    </g>
    <!-- 100kΩ -->
    <g transform="translate(119.195781 29.768437) scale(0.14 -0.14)">
     <defs>
      <path id="DejaVuSans-30" d="M 2034 4250 
Q 1547 4250 1301 3770 
Q 1056 3291 1056 2328 
Q 1056 1369 1301 889 
Q 1547 409 2034 409 
Q 2525 409 2770 889 
Q 3016 1369 3016 2328 
Q 3016 3291 2770 3770 
Q 2525 4250 2034 4250 
z
M 2034 4750 
Q 2819 4750 3233 4129 
Q 3647 3509 3647 2328 
Q 3647 1150 3233 529 
Q 2819 -91 2034 -91 
Q 1250 -91 836 529 
Q 422 1150 422 2328 
Q 422 3509 836 4129 
Q 1250 4750 2034 4750 
z
" transform="scale(0.015625)"/>
     </defs>
     <use xlink:href="#DejaVuSans-31"/>
     <use xlink:href="#DejaVuSans-30" transform="translate(63.623047 0)"/>
     <use xlink:href="#DejaVuSans-30" transform="translate(127.246094 0)"/>
     <use xlink:href="#DejaVuSans-6b" transform="translate(190.869141 0)"/>
     <use xlink:href="#DejaVuSans-3a9" transform="translate(248.779297 0)"/>
    </g>
   </g>
   <g id="text_5">
    <!-- B+ -->
    <g transform="translate(77.291562 38.768437) scale(0.14 -0.14)">
     <defs>
      <path id="DejaVuSans-42" d="M 1259 2228 
L 1259 519 
L 2272 519 
Q 2781 519 3026 730 
Q 3272 941 3272 1375 
Q 3272 1813 3026 2020 
Q 2781 2228 2272 2228 
L 1259 2228 
z
M 1259 4147 
L 1259 2741 
L 2194 2741 
Q 2656 2741 2882 2914 
Q 3109 3088 3109 3444 
Q 3109 3797 2882 3972 
Q 2656 4147 2194 4147 
L 1259 4147 
z
M 628 4666 
L 2241 4666 
Q 2963 4666 3353 4366 
Q 3744 4066 3744 3513 
Q 3744 3084 3544 2831 
Q 3344 2578 2956 2516 
Q 3422 2416 3680 2098 
Q 3938 1781 3938 1306 
Q 3938 681 3513 340 
Q 3088 0 2303 0 
L 628 0 
L 628 4666 
z
" transform="scale(0.015625)"/>
      <path id="DejaVuSans-2b" d="M 2944 4013 
L 2944 2272 
L 4684 2272 
L 4684 1741 
L 2944 1741 
L 2944 0 
L 2419 0 
L 2419 1741 
L 678 1741 
L 678 2272 
L 2419 2272 
L 2419 4013 
L 2944 4013 
z
" transform="scale(0.015625)"/>
     </defs>
     <use xlink:href="#DejaVuSans-42"/>
     <use xlink:href="#DejaVuSans-2b" transform="translate(68.603516 0)"/>
    </g>
   </g>
   <g id="text_6">
    <!-- Cin -->
    <g transform="translate(59.051094 97.268437) scale(0.14 -0.14)">
     <defs>
      <path id="DejaVuSans-69" d="M 603 3500 
L 1178 3500 
L 1178 0 
L 603 0 
L 603 3500 
z
M 603 4863 
L 1178 4863 
L 1178 4134 
L 603 4134 
L 603 4863 
z
" transform="scale(0.015625)"/>
      <path id="DejaVuSans-6e" d="M 3513 2113 
L 3513 0 
L 2938 0 
L 2938 2094 
Q 2938 2591 2744 2837 
Q 2550 3084 2163 3084 
Q 1697 3084 1428 2787 
Q 1159 2491 1159 1978 
L 1159 0 
L 581 0 
L 581 3500 
L 1159 3500 
L 1159 2956 
Q 1366 3272 1645 3428 
Q 1925 3584 2291 3584 
Q 2894 3584 3203 3211 
Q 3513 2838 3513 2113 
z
" transform="scale(0.015625)"/>
     </defs>
     <use xlink:href="#DejaVuSans-43"/>
     <use xlink:href="#DejaVuSans-69" transform="translate(69.824219 0)"/>
     <use xlink:href="#DejaVuSans-6e" transform="translate(97.607422 0)"/>
    </g>
   </g>
   <g id="text_7">
    <!-- 0.1µF -->
    <g transform="translate(50.707969 136.017812) scale(0.14 -0.14)">
     <defs>
      <path id="DejaVuSans-2e" d="M 684 794 
L 1344 794 
L 1344 0 
L 684 0 
L 684 794 
z
" transform="scale(0.015625)"/>
     </defs>
     <use xlink:href="#DejaVuSans-30"/>
     <use xlink:href="#DejaVuSans-2e" transform="translate(63.623047 0)"/>
     <use xlink:href="#DejaVuSans-31" transform="translate(95.410156 0)"/>
     <use xlink:href="#DejaVuSans-b5" transform="translate(159.033203 0)"/>
     <use xlink:href="#DejaVuSans-46" transform="translate(222.65625 0)"/>
    </g>
   </g>
   <g id="patch_3">
    <path d="M 43.32 115.48 
C 44.036048 115.48 44.722866 115.195511 45.229188 114.689188 
C 45.735511 114.182866 46.02 113.496048 46.02 112.78 
C 46.02 112.063952 45.735511 111.377134 45.229188 110.870812 
C 44.722866 110.364489 44.036048 110.08 43.32 110.08 
C 42.603952 110.08 41.917134 110.364489 41.410812 110.870812 
C 40.904489 111.377134 40.62 112.063952 40.62 112.78 
C 40.62 113.496048 40.904489 114.182866 41.410812 114.689188 
C 41.917134 115.195511 42.603952 115.48 43.32 115.48 
z
" clip-path="url(#p67d4d0888b)" style="stroke: #000000; stroke-width: 2; stroke-linejoin: miter"/>
   </g>
   <g id="text_8">
    <!-- Input -->
    <g transform="translate(0.76875 116.643125) scale(0.14 -0.14)">
     <defs>
      <path id="DejaVuSans-49" d="M 628 4666 
L 1259 4666 
L 1259 0 
L 628 0 
L 628 4666 
z
" transform="scale(0.015625)"/>
      <path id="DejaVuSans-70" d="M 1159 525 
L 1159 -1331 
L 581 -1331 
L 581 3500 
L 1159 3500 
L 1159 2969 
Q 1341 3281 1617 3432 
Q 1894 3584 2278 3584 
Q 2916 3584 3314 3078 
Q 3713 2572 3713 1747 
Q 3713 922 3314 415 
Q 2916 -91 2278 -91 
Q 1894 -91 1617 61 
Q 1341 213 1159 525 
z
M 3116 1747 
Q 3116 2381 2855 2742 
Q 2594 3103 2138 3103 
Q 1681 3103 1420 2742 
Q 1159 2381 1159 1747 
Q 1159 1113 1420 752 
Q 1681 391 2138 391 
Q 2594 391 2855 752 
Q 3116 1113 3116 1747 
z
" transform="scale(0.015625)"/>
      <path id="DejaVuSans-75" d="M 544 1381 
L 544 3500 
L 1119 3500 
L 1119 1403 
Q 1119 906 1312 657 
Q 1506 409 1894 409 
Q 2359 409 2629 706 
Q 2900 1003 2900 1516 
L 2900 3500 
L 3475 3500 
L 3475 0 
L 2900 0 
L 2900 538 
Q 2691 219 2414 64 
Q 2138 -91 1772 -91 
Q 1169 -91 856 284 
Q 544 659 544 1381 
z
M 1991 3584 
L 1991 3584 
z
" transform="scale(0.015625)"/>
      <path id="DejaVuSans-74" d="M 1172 4494 
L 1172 3500 
L 2356 3500 
L 2356 3053 
L 1172 3053 
L 1172 1153 
Q 1172 725 1289 603 
Q 1406 481 1766 481 
L 2356 481 
L 2356 0 
L 1766 0 
Q 1100 0 847 248 
Q 594 497 594 1153 
L 594 3053 
L 172 3053 
L 172 3500 
L 594 3500 
L 594 4494 
L 1172 4494 
z
" transform="scale(0.015625)"/>
     </defs>
     <use xlink:href="#DejaVuSans-49"/>
     <use xlink:href="#DejaVuSans-6e" transform="translate(29.492188 0)"/>
     <use xlink:href="#DejaVuSans-70" transform="translate(92.871094 0)"/>
     <use xlink:href="#DejaVuSans-75" transform="translate(156.347656 0)"/>
     <use xlink:href="#DejaVuSans-74" transform="translate(219.726562 0)"/>
    </g>
   </g>
  </g>
 </g>
 <defs>
  <clipPath id="p67d4d0888b">
   <rect x="0" y="-0" width="205.14" height="206.9"/>
  </clipPath>
 </defs>
</svg>
